<?xml version="1.0" encoding="utf-8"?>
<!-- Generator: Adobe Illustrator 24.2.1, SVG Export Plug-In . SVG Version: 6.00 Build 0)  -->
<svg version="1.1" id="Layer_1" xmlns="http://www.w3.org/2000/svg" xmlns:xlink="http://www.w3.org/1999/xlink" x="0px" y="0px"
	 viewBox="0 0 1541 800" style="enable-background:new 0 0 1541 800;" xml:space="preserve">
<style type="text/css">
	.st0{fill:none;}
	.st1{enable-background:new    ;}
	.st2{fill:#AFAFAF;}
	.st3{clip-path:url(#SVGID_2_);enable-background:new    ;}
	.st4{fill:#858585;}
	.st5{fill:#8A8A8A;}
	.st6{clip-path:url(#SVGID_4_);enable-background:new    ;}
	.st7{clip-path:url(#SVGID_6_);enable-background:new    ;}
	.st8{fill:#8F8F8F;}
	.st9{fill:#9D9D9D;}
	.st10{fill:#D6D6D6;}
	.st11{fill:#808080;}
	.st12{fill:#B5B5B5;}
	.st13{clip-path:url(#SVGID_8_);enable-background:new    ;}
	.st14{clip-path:url(#SVGID_10_);enable-background:new    ;}
	.st15{clip-path:url(#SVGID_12_);enable-background:new    ;}
	.st16{fill:#949494;}
	.st17{fill:#999999;}
	.st18{clip-path:url(#SVGID_14_);enable-background:new    ;}
	.st19{clip-path:url(#SVGID_16_);enable-background:new    ;}
	.st20{clip-path:url(#SVGID_18_);enable-background:new    ;}
	.st21{clip-path:url(#SVGID_20_);enable-background:new    ;}
	.st22{clip-path:url(#SVGID_22_);enable-background:new    ;}
	.st23{clip-path:url(#SVGID_24_);enable-background:new    ;}
	.st24{fill:#A3A3A3;}
	.st25{fill:#A8A8A8;}
	.st26{fill:#ADADAD;}
	.st27{clip-path:url(#SVGID_26_);enable-background:new    ;}
	.st28{clip-path:url(#SVGID_28_);enable-background:new    ;}
	.st29{stroke:#FFFFFF;stroke-miterlimit:10;}
	.st30{fill:#B0B0B0;}
	.st31{clip-path:url(#SVGID_30_);enable-background:new    ;}
	.st32{clip-path:url(#SVGID_32_);enable-background:new    ;}
	.st33{fill:#9E9E9E;}
	.st34{fill:#A4A4A4;}
	.st35{fill:#B2B2B2;}
	.st36{fill:#A5A5A5;}
	.st37{fill:#A6A6A6;}
	.st38{fill:#9B9B9B;}
</style>
<rect x="-188" y="-1050" class="st0" width="1833" height="2153"/>
<g>
	<g>
		<g class="st1">
			<g>
				<polygon class="st2" points="728.2,238.5 738.1,245.6 793,323.8 783,316.8 				"/>
			</g>
			<g class="st1">
				<defs>
					<path id="SVGID_1_" class="st1" d="M1166,95.9l9.9,7.1c-7-1-67.9-8.6-148.5,3.6c-4.5,0.7-9.1,1.4-13.9,2.3
						c-77.8,13.7-184.3,48.8-275.5,136.7l-9.9-7.1c91.2-87.9,197.7-123,275.5-136.7c4.7-0.8,9.4-1.6,13.9-2.3
						C1098.1,87.3,1159,95,1166,95.9z"/>
				</defs>
				<clipPath id="SVGID_2_">
					<use xlink:href="#SVGID_1_"  style="overflow:visible;"/>
				</clipPath>
				<g class="st3">
					<path class="st4" d="M1166,95.9l9.9,7.1c-7-1-67.9-8.6-148.5,3.6c-4.5,0.7-9.1,1.4-13.9,2.3c-72.1,12.7-168.8,43.8-255.2,118.2
						l-9.9-7.1c86.4-74.4,183.1-105.5,255.2-118.2c4.7-0.8,9.4-1.6,13.9-2.3C1098.1,87.3,1159,95,1166,95.9"/>
					<path class="st5" d="M748.5,220l9.9,7.1c-6.8,5.9-13.6,12.1-20.3,18.5l-9.9-7.1C734.9,232.1,741.7,225.9,748.5,220"/>
				</g>
			</g>
			<g class="st1">
				<defs>
					<path id="SVGID_3_" class="st1" d="M1119.2,184.1l9.9,7.1c-38.8-2.8-76.5-1-112.4,5.3c-12.7,2.2-25.2,5-37.4,8.4
						c-37.5,10.3-72.9,26-105,46.5c-51.1,32.6-77.9,67.5-81.4,72.3l-9.9-7.1c3.6-4.8,30.4-39.7,81.4-72.3
						c32.1-20.5,67.5-36.2,105-46.5c12.2-3.4,24.7-6.2,37.4-8.4C1042.8,183.1,1080.4,181.3,1119.2,184.1z"/>
				</defs>
				<clipPath id="SVGID_4_">
					<use xlink:href="#SVGID_3_"  style="overflow:visible;"/>
				</clipPath>
				<g class="st6">
					<path d="M1119.2,184.1l9.9,7.1c-38.8-2.8-76.5-1-112.4,5.3c-12.7,2.2-25.2,5-37.4,8.4c-37.5,10.3-72.9,26-105,46.5
						c-16.3,10.4-30.1,21.1-41.5,30.9l-9.9-7.1c11.4-9.8,25.2-20.5,41.5-30.9c32.1-20.5,67.5-36.2,105-46.5
						c12.2-3.4,24.7-6.2,37.4-8.4C1042.8,183.1,1080.4,181.3,1119.2,184.1"/>
					<path d="M822.9,275.3l9.9,7.1c-14.8,12.8-25.5,24.2-32.2,31.9l-9.9-7.1C797.4,299.5,808.1,288.1,822.9,275.3"/>
					<path d="M790.8,307.2l9.9,7.1c-4.2,4.9-6.8,8.3-7.8,9.6l-9.9-7.1C784,315.5,786.6,312.1,790.8,307.2"/>
				</g>
			</g>
			<g>
				<polygon points="1166,95.9 1175.9,103 1129.2,191.2 1119.2,184.1 				"/>
			</g>
			<g>
				<path d="M1003.7,101.8c4.7-0.8,9.4-1.6,13.9-2.3c80.6-12.2,141.4-4.6,148.5-3.6l-46.8,88.2c-38.8-2.8-76.5-1-112.4,5.3
					c-12.7,2.2-25.2,5-37.4,8.4c-37.5,10.3-72.9,26-105,46.5c-51.1,32.6-77.9,67.5-81.4,72.3l-54.8-78.3
					C819.4,150.6,925.9,115.5,1003.7,101.8z"/>
			</g>
			<g class="st1">
				<defs>
					<path id="SVGID_5_" class="st1" d="M1119.8,185.2l9.9,7.1c-41.7-3-79-0.6-112.2,5.3c-62.1,11-109.7,33.8-142.6,54.8
						c-54.6,34.9-81.4,72.3-81.6,72.7l-9.9-7.1c0.3-0.4,27-37.8,81.6-72.7c32.8-21,80.4-43.8,142.6-54.8
						C1040.7,184.6,1078.1,182.1,1119.8,185.2z"/>
				</defs>
				<clipPath id="SVGID_6_">
					<use xlink:href="#SVGID_5_"  style="overflow:visible;"/>
				</clipPath>
				<g class="st7">
					<path class="st4" d="M1119.8,185.2l9.9,7.1c-41.7-3-79-0.6-112.2,5.3c-62.1,11-109.7,33.8-142.6,54.8
						c-16.3,10.4-30.1,21-41.5,30.9l-9.9-7.1c11.4-9.8,25.2-20.4,41.5-30.9c32.8-21,80.4-43.8,142.6-54.8
						C1040.7,184.6,1078.1,182.1,1119.8,185.2"/>
					<path class="st5" d="M823.6,276.1l9.9,7.1c-14.8,12.8-25.5,24.1-32.1,31.8l-9.9-7.1C798.1,300.2,808.8,288.8,823.6,276.1"/>
					<path class="st8" d="M791.5,307.9l9.9,7.1c-5.3,6.2-8,9.9-8.1,10l-9.9-7.1C783.5,317.8,786.2,314,791.5,307.9"/>
				</g>
			</g>
			<g>
				<polygon class="st9" points="1166.9,95 1176.8,102.1 1129.7,192.2 1119.8,185.2 				"/>
			</g>
			<g>
				<path class="st10" d="M1166.9,95l-47.1,90.1c-41.7-3-79-0.6-112.2,5.3c-62.1,11-109.7,33.8-142.6,54.8
					c-54.6,34.9-81.4,72.3-81.6,72.7l-56.5-79.5c43.2-41.7,92.9-74.9,148.3-99.2c40-17.5,83-30.4,127.9-38.3
					c4.8-0.8,9.6-1.6,14.4-2.4C1102.9,85.6,1166.2,94.9,1166.9,95z M1119.2,184.1l46.8-88.2c-7-1-67.9-8.6-148.5,3.6
					c-4.5,0.7-9.1,1.4-13.9,2.3c-77.8,13.7-184.3,48.8-275.5,136.7l54.8,78.3c3.6-4.8,30.4-39.7,81.4-72.3
					c32.1-20.5,67.5-36.2,105-46.5c12.2-3.4,24.7-6.2,37.4-8.4C1042.8,183.1,1080.4,181.3,1119.2,184.1"/>
			</g>
		</g>
	</g>
</g>
<g>
	<g>
		<g class="st1">
			<g>
				<polygon class="st11" points="448.1,211.9 458.1,218.9 417.3,226.1 407.4,219.1 				"/>
			</g>
			<g>
				<polygon class="st11" points="477.3,226.4 487.2,233.4 458.1,218.9 448.1,211.9 				"/>
			</g>
			<g>
				<polygon class="st12" points="407.4,219.1 417.3,226.1 433.4,337.2 423.5,330.1 				"/>
			</g>
			<g>
				<polygon points="497,317 506.9,324.1 433.4,337.2 423.5,330.1 				"/>
			</g>
			<g>
				<polygon class="st11" points="496.4,318.5 506.3,325.5 432.6,338.3 422.6,331.3 				"/>
			</g>
			<g class="st1">
				<defs>
					<path id="SVGID_7_" class="st1" d="M599.3,263.3l9.9,7.1c-13.9-4.3-26.3-4.7-37.1-2.8c-17.7,3.1-31.3,12.5-40.8,21.7
						c-15.2,14.7-23.2,31.9-24.5,34.8L497,317c1.3-2.9,9.3-20.1,24.5-34.8c9.5-9.2,23.1-18.6,40.8-21.7
						C573.1,258.5,585.4,259,599.3,263.3z"/>
				</defs>
				<clipPath id="SVGID_8_">
					<use xlink:href="#SVGID_7_"  style="overflow:visible;"/>
				</clipPath>
				<g class="st13">
					<path d="M599.3,263.3l9.9,7.1c-13.9-4.3-26.3-4.7-37.1-2.8c-15.3,2.7-27.5,10.1-36.7,18l-9.9-7.1c9.2-7.9,21.4-15.3,36.7-18
						C573.1,258.5,585.4,259,599.3,263.3"/>
					<path d="M525.6,278.5l9.9,7.1c-1.4,1.2-2.8,2.5-4.1,3.7c-2.3,2.2-4.4,4.5-6.4,6.8l-9.9-7.1c2-2.3,4.1-4.6,6.4-6.8
						C522.8,280.9,524.1,279.7,525.6,278.5"/>
					<path d="M515.1,289l9.9,7.1c-3.4,4-6.3,7.9-8.8,11.6l-9.9-7.1C508.7,296.9,511.7,292.9,515.1,289"/>
					<path d="M506.3,300.5l9.9,7.1c-3.1,4.6-5.4,8.8-7,11.8l-9.9-7.1C500.8,309.3,503.2,305.2,506.3,300.5"/>
					<path d="M499.3,312.3l9.9,7.1c-1.2,2.3-1.9,3.9-2.3,4.7L497,317C497.3,316.3,498.1,314.6,499.3,312.3"/>
				</g>
			</g>
			<g>
				<polygon class="st5" points="498,317 508,324.1 506.3,325.5 496.4,318.5 				"/>
			</g>
			<g class="st1">
				<defs>
					<path id="SVGID_9_" class="st1" d="M600,185l9.9,7.1c-0.2-0.1-17.4-5.5-41-3.1c-2.7,0.3-5.5,0.7-8.4,1.2
						c-21.1,3.7-48.6,14.5-73.2,43.2l-9.9-7.1c24.6-28.7,52.1-39.5,73.2-43.2c2.9-0.5,5.8-0.9,8.4-1.2
						C582.6,179.6,599.8,185,600,185z"/>
				</defs>
				<clipPath id="SVGID_10_">
					<use xlink:href="#SVGID_9_"  style="overflow:visible;"/>
				</clipPath>
				<g class="st14">
					<path class="st4" d="M600,185l9.9,7.1c-0.2-0.1-17.4-5.5-41-3.1c-2.7,0.3-5.5,0.7-8.4,1.2c-16.9,3-37.8,10.5-58.1,28l-9.9-7.1
						c20.3-17.5,41.3-25,58.1-28c2.9-0.5,5.8-0.9,8.4-1.2C582.6,179.6,599.8,185,600,185"/>
					<path class="st5" d="M492.4,211.1l9.9,7.1c-5,4.3-10,9.3-14.9,14.9l-9.9-7.1C482.4,220.4,487.4,215.5,492.4,211.1"/>
					<path class="st8" d="M477.5,226l9.9,7.1c-0.1,0.1-0.2,0.2-0.3,0.3l-9.9-7.1C477.4,226.3,477.5,226.1,477.5,226"/>
				</g>
			</g>
			<g class="st1">
				<defs>
					<path id="SVGID_11_" class="st1" d="M599,264.2l9.9,7.1c-13.7-4.2-25.9-4.7-36.5-2.8c-17.5,3.1-30.9,12.4-40.3,21.5
						c-14.6,14.1-22.5,30.5-24.1,34.2L498,317c1.7-3.7,9.6-20.1,24.1-34.2c9.4-9.1,22.8-18.4,40.3-21.5
						C573.1,259.5,585.3,260,599,264.2z"/>
				</defs>
				<clipPath id="SVGID_12_">
					<use xlink:href="#SVGID_11_"  style="overflow:visible;"/>
				</clipPath>
				<g class="st15">
					<path class="st4" d="M599,264.2l9.9,7.1c-13.7-4.2-25.9-4.7-36.5-2.8c-15.1,2.7-27.2,10-36.2,17.8l-9.9-7.1
						c9.1-7.8,21.1-15.1,36.2-17.8C573.1,259.5,585.3,260,599,264.2"/>
					<path class="st5" d="M526.2,279.2l9.9,7.1c-1.4,1.2-2.7,2.4-4,3.7c-2.3,2.2-4.4,4.5-6.4,6.8l-9.9-7.1c2-2.3,4.1-4.5,6.4-6.8
						C523.4,281.6,524.8,280.4,526.2,279.2"/>
					<path class="st8" d="M515.8,289.6l9.9,7.1c-3.4,3.9-6.3,7.9-8.7,11.5l-9.9-7.1C509.5,297.5,512.4,293.5,515.8,289.6"/>
					<path class="st16" d="M507.1,301.1l9.9,7.1c-3.1,4.6-5.4,8.7-7,11.7l-9.9-7.1C501.7,309.8,504,305.7,507.1,301.1"/>
					<path class="st17" d="M500.1,312.8l9.9,7.1c-1,1.9-1.7,3.4-2.1,4.2L498,317C498.4,316.2,499.1,314.7,500.1,312.8"/>
				</g>
			</g>
			<g class="st1">
				<defs>
					<path id="SVGID_13_" class="st1" d="M645.5,207l9.9,7.1c-12.5-8.9-27.7-17-45.5-22L600,185C617.8,190.1,633,198.1,645.5,207z"
						/>
				</defs>
				<clipPath id="SVGID_14_">
					<use xlink:href="#SVGID_13_"  style="overflow:visible;"/>
				</clipPath>
				<g class="st18">
					<path class="st4" d="M645.5,207l9.9,7.1c-12.5-8.9-27.7-17-45.5-22L600,185C617.8,190.1,633,198.1,645.5,207"/>
				</g>
			</g>
			<g class="st1">
				<defs>
					<path id="SVGID_15_" class="st1" d="M622.1,277.6c-3.8-2.7-8.1-5.2-12.8-7.3l-9.9-7.1c4.7,2.1,9,4.6,12.8,7.3
						C615.1,272.7,619.1,275.5,622.1,277.6z"/>
				</defs>
				<clipPath id="SVGID_16_">
					<use xlink:href="#SVGID_15_"  style="overflow:visible;"/>
				</clipPath>
				<g class="st19">
					<path d="M612.1,270.5l9.9,7.1c-3.8-2.7-8.1-5.2-12.8-7.3l-9.9-7.1C604,265.4,608.3,267.8,612.1,270.5"/>
				</g>
			</g>
			<g class="st1">
				<defs>
					<path id="SVGID_17_" class="st1" d="M611.6,271.4l9.9,7.1c-3.8-2.7-8-5.1-12.6-7.2l-9.9-7.1
						C603.6,266.3,607.8,268.7,611.6,271.4z"/>
				</defs>
				<clipPath id="SVGID_18_">
					<use xlink:href="#SVGID_17_"  style="overflow:visible;"/>
				</clipPath>
				<g class="st20">
					<path class="st4" d="M611.6,271.4l9.9,7.1c-3.8-2.7-8-5.1-12.6-7.2l-9.9-7.1C603.6,266.3,607.8,268.7,611.6,271.4"/>
				</g>
			</g>
			<g class="st1">
				<defs>
					<path id="SVGID_19_" class="st1" d="M655.4,214.1c5.9,4.2,11.2,8.5,15.9,12.9c-3.3-2.4-6.6-4.7-9.9-7.1
						c-4.7-4.3-10-8.7-15.9-12.9C648.5,209.1,652.4,212,655.4,214.1z"/>
				</defs>
				<clipPath id="SVGID_20_">
					<use xlink:href="#SVGID_19_"  style="overflow:visible;"/>
				</clipPath>
				<g class="st21">
					<path d="M645.5,207l9.9,7.1c4.7,3.3,9,6.8,13,10.3l-9.9-7.1C654.5,213.8,650.2,210.4,645.5,207"/>
					<path d="M658.5,217.3l9.9,7.1c7.6,6.7,13.9,13.4,18.9,19.4l-9.9-7.1C672.4,230.7,666.1,224,658.5,217.3"/>
				</g>
			</g>
			<g class="st1">
				<defs>
					<path id="SVGID_21_" class="st1" d="M671.3,227c19.1,17.5,28.9,34.5,30,36.5l-9.9-7.1c-1.1-2-11-19-30-36.5
						c1.7,1.2,3.3,2.4,5,3.5c0.2,0.1,0.5,0.3,0.7,0.5c0.4,0.3,0.9,0.6,1.3,0.9c0.2,0.1,0.4,0.3,0.6,0.5c0.4,0.3,0.9,0.6,1.2,0.9
						C670.5,226.4,671,226.7,671.3,227z"/>
				</defs>
				<clipPath id="SVGID_22_">
					<use xlink:href="#SVGID_21_"  style="overflow:visible;"/>
				</clipPath>
				<g class="st22">
					<path d="M658.5,217.3l9.9,7.1c7.6,6.7,13.9,13.4,18.9,19.4l-9.9-7.1C672.4,230.7,666.1,224,658.5,217.3"/>
					<path d="M677.3,236.7l9.9,7.1c8.7,10.4,13.3,18.4,14.1,19.8l-9.9-7.1C690.6,255.1,686,247,677.3,236.7"/>
				</g>
			</g>
			<g class="st1">
				<defs>
					<path id="SVGID_23_" class="st1" d="M646.1,206.2l9.9,7.1c31.1,22.1,46.1,49.5,46.3,49.9l-9.9-7.1
						C692.2,255.7,677.1,228.3,646.1,206.2z"/>
				</defs>
				<clipPath id="SVGID_24_">
					<use xlink:href="#SVGID_23_"  style="overflow:visible;"/>
				</clipPath>
				<g class="st23">
					<path class="st24" d="M646.1,206.2l9.9,7.1c4.7,3.4,9,6.8,13,10.3l-9.9-7.1C655.1,213,650.8,209.6,646.1,206.2"/>
					<path class="st25" d="M659.1,216.5l9.9,7.1c7.7,6.7,14,13.5,19,19.4l-9.9-7.1C673.1,230,666.8,223.2,659.1,216.5"/>
					<path class="st26" d="M678.1,236l9.9,7.1c9.5,11.4,14.2,19.9,14.3,20.1l-9.9-7.1C692.2,255.9,687.5,247.3,678.1,236"/>
				</g>
			</g>
			<g class="st1">
				<defs>
					<path id="SVGID_25_" class="st1" d="M612.1,270.5l9.9,7.1c21.9,15.6,30.3,40.1,33.4,59.3c3,18.2,1.8,34.8,1,42.1l-9.9-7.1
						c0.8-7.3,2-23.9-1-42.1C642.4,310.6,634,286.1,612.1,270.5z"/>
				</defs>
				<clipPath id="SVGID_26_">
					<use xlink:href="#SVGID_25_"  style="overflow:visible;"/>
				</clipPath>
				<g class="st27">
					<path class="st24" d="M612.1,270.5l9.9,7.1c2,1.4,3.9,2.9,5.7,4.5l-9.9-7.1C616,273.5,614.1,272,612.1,270.5"/>
					<path class="st25" d="M617.8,275l9.9,7.1c2.9,2.5,5.5,5.2,7.8,8.1l-9.9-7.1C623.3,280.3,620.7,277.6,617.8,275"/>
					<path class="st26" d="M625.6,283.1l9.9,7.1c12.1,14.5,17.5,32.1,19.9,46.8c1.3,8.1,1.8,15.9,1.9,22.7l-9.9-7.1
						c-0.1-6.8-0.6-14.6-1.9-22.7C643.2,315.2,637.7,297.5,625.6,283.1"/>
					<path class="st25" d="M647.4,352.5l9.9,7.1c0.1,8.5-0.5,15.4-0.9,19.5l-9.9-7.1C647,367.9,647.5,361,647.4,352.5"/>
				</g>
			</g>
			<g>
				<polygon points="691.4,256.4 701.3,263.5 656.5,379 646.5,371.9 				"/>
			</g>
			<g>
				<path class="st10" d="M692.4,256.1l-48.1,124.3l0.8-4.7c0-0.2,3.5-21.5-0.5-45.8c-3.7-22.4-14.5-51.9-45.6-65.8
					c-13.7-4.2-25.9-4.7-36.5-2.8c-17.5,3.1-30.9,12.4-40.3,21.5C507.6,297,499.7,313.4,498,317l-1.7,1.4l-73.7,12.8l-16.4-113
					l42.1-7.4l28.5,14.6c24.7-28.6,52.4-39.5,73.6-43.2c3-0.5,5.8-0.9,8.5-1.2c23.8-2.4,41.2,3,41.3,3.1
					C662.5,201.6,692.1,255.6,692.4,256.1z M646.5,371.9l44.9-115.5c-2-3.6-31.5-54.5-91.4-71.4c-0.2-0.1-17.4-5.5-41-3.1
					c-2.7,0.3-5.5,0.7-8.4,1.2c-21.1,3.7-48.6,14.5-73.2,43.2l-29.1-14.5l-40.8,7.2l16.1,111.1L497,317c1.3-2.9,9.3-20.1,24.5-34.8
					c9.5-9.2,23.1-18.6,40.8-21.7c10.8-1.9,23.2-1.5,37.1,2.8c31.5,14.1,42.5,44,46.2,66.6C648.5,348.1,647.3,364.6,646.5,371.9"/>
			</g>
			<g>
				<path d="M550.5,183.2c2.9-0.5,5.8-0.9,8.4-1.2c23.6-2.4,40.8,3,41,3.1c59.9,16.9,89.4,67.8,91.4,71.4l-44.9,115.5
					c0.8-7.3,2-23.9-1-42.1c-3.7-22.6-14.7-52.5-46.2-66.6c-13.9-4.3-26.3-4.7-37.1-2.8c-17.7,3.1-31.3,12.5-40.8,21.7
					c-15.2,14.7-23.2,31.9-24.5,34.8l-73.5,13.1l-16.1-111.1l40.8-7.2l28.9,14.8C501.9,197.7,529.4,186.9,550.5,183.2z"/>
			</g>
			<g>
				<polygon class="st24" points="692.4,256.1 702.3,263.2 654.2,387.5 644.3,380.5 				"/>
			</g>
		</g>
	</g>
</g>
<g>
	<g>
		<g class="st1">
			<g class="st1">
				<defs>
					<path id="SVGID_27_" class="st1" d="M597.6,505.8l9.9,7.1c-5.8,8.3-21.9,30.4-42.6,52.2c-21.3,22.4-51.6,48.5-80.7,53.6
						c-3.6,0.6-7.1,0.9-10.7,0.9l-9.9-7.1c3.5,0,7.1-0.3,10.7-0.9c29.1-5.1,59.4-31.2,80.7-53.6
						C575.7,536.2,591.8,514.1,597.6,505.8z"/>
				</defs>
				<clipPath id="SVGID_28_">
					<use xlink:href="#SVGID_27_"  style="overflow:visible;"/>
				</clipPath>
				<g class="st28">
					<path class="st8" d="M597.6,505.8l9.9,7.1c-4.5,6.4-15,20.9-29.1,37.2l-9.9-7.1C582.6,526.8,593.2,512.2,597.6,505.8"/>
					<path class="st5" d="M568.6,543l9.9,7.1c-4.2,4.9-8.8,9.9-13.6,15c-6.6,6.9-14,14.2-22,21.1l-9.9-7.1c8-6.9,15.4-14.1,22-21.1
						C559.8,553,564.3,547.9,568.6,543"/>
					<path class="st4" d="M533,579.1l9.9,7.1c-17.9,15.4-38.6,29-58.7,32.6c-3.6,0.6-7.1,0.9-10.7,0.9l-9.9-7.1
						c3.5,0,7.1-0.3,10.7-0.9C494.4,608.1,515.1,594.5,533,579.1"/>
				</g>
			</g>
			<g>
				<polygon class="st12" points="463.6,612.6 473.6,619.6 483.8,688.9 473.9,681.8 				"/>
			</g>
			<g>
				<polygon points="533.5,671.3 543.5,678.4 483.8,688.9 473.9,681.8 				"/>
			</g>
			<g>
				<polygon points="597.6,505.8 607.6,512.9 543.5,678.4 533.5,671.3 				"/>
			</g>
			<g>
				<path class="st10" d="M599.2,501.9l2.5-3.7l-67.4,174L473.1,683l-10.6-71.4l0.6,0c3.7,0.1,7.4-0.2,11.1-0.9
					c28.8-5.1,58.9-31,80.1-53.3C580.3,530,599,502.1,599.2,501.9z M533.5,671.3l64.1-165.5c-5.8,8.3-21.9,30.4-42.6,52.2
					c-21.3,22.4-51.6,48.5-80.7,53.6c-3.6,0.6-7.1,0.9-10.7,0.9l10.3,69.3L533.5,671.3"/>
			</g>
			<g>
				<path d="M597.6,505.8l-64.1,165.5l-59.6,10.5l-10.3-69.3c3.5,0,7.1-0.3,10.7-0.9c29.1-5.1,59.4-31.2,80.7-53.6
					C575.7,536.2,591.8,514.1,597.6,505.8z"/>
			</g>
			<g>
				<polygon class="st11" points="534.2,672.2 544.2,679.2 483,690 473.1,683 				"/>
			</g>
			<g>
				<polygon class="st24" points="601.6,498.2 611.6,505.3 544.2,679.2 534.2,672.2 				"/>
			</g>
		</g>
	</g>
</g>
<path class="st29" d="M171,121.7"/>
<g>
	<g>
		<g class="st1">
			<g>
				<polygon class="st24" points="699.7,262.8 709.6,269.9 555,674.4 545.1,667.3 				"/>
			</g>
			<g>
				<polygon points="699.7,262.8 709.6,269.9 714.8,277.7 704.9,270.6 				"/>
			</g>
			<g>
				<polygon class="st30" points="699.5,260.6 709.4,267.7 715.6,277.1 705.7,270 				"/>
			</g>
			<g class="st1">
				<defs>
					<path id="SVGID_29_" class="st1" d="M704.9,270.6l9.9,7.1c29,43.8,35.6,100.3,17.6,151l-9.9-7.1
						C740.4,370.9,733.9,314.4,704.9,270.6z"/>
				</defs>
				<clipPath id="SVGID_30_">
					<use xlink:href="#SVGID_29_"  style="overflow:visible;"/>
				</clipPath>
				<g class="st31">
					<path d="M704.9,270.6l9.9,7.1c17.8,26.9,27.2,58.6,27.6,90.9l-9.9-7.1C732,329.2,722.7,297.5,704.9,270.6"/>
					<path d="M732.4,361.5l9.9,7.1c0.1,8.6-0.4,17.3-1.6,25.9l-9.9-7.1C732,378.8,732.5,370.1,732.4,361.5"/>
					<path d="M730.8,387.4l9.9,7.1c-1,7-2.4,14-4.2,20.9l-9.9-7.1C728.4,401.4,729.8,394.4,730.8,387.4"/>
					<path d="M726.6,408.3l9.9,7.1c-1.2,4.5-2.6,8.9-4.1,13.3l-9.9-7.1C724,417.2,725.4,412.7,726.6,408.3"/>
				</g>
			</g>
			<g class="st1">
				<defs>
					<path id="SVGID_31_" class="st1" d="M705.7,270l9.9,7.1c29.2,44.1,35.8,100.9,17.7,151.9l-9.9-7.1
						C741.5,370.9,734.9,314.1,705.7,270z"/>
				</defs>
				<clipPath id="SVGID_32_">
					<use xlink:href="#SVGID_31_"  style="overflow:visible;"/>
				</clipPath>
				<g class="st32">
					<path class="st26" d="M705.7,270l9.9,7.1c17.9,27.1,27.3,59,27.7,91.4l-9.9-7.1C733,329,723.6,297.1,705.7,270"/>
					<path class="st25" d="M733.4,361.4l9.9,7.1c0.1,8.7-0.4,17.4-1.6,26.1l-9.9-7.1C733,378.8,733.5,370.1,733.4,361.4"/>
					<path class="st24" d="M731.8,387.5l9.9,7.1c-1,7-2.4,14.1-4.2,21l-9.9-7.1C729.4,401.6,730.8,394.5,731.8,387.5"/>
					<path class="st33" d="M727.5,408.5l9.9,7.1c-1.2,4.5-2.6,9-4.2,13.4l-9.9-7.1C724.9,417.5,726.3,413,727.5,408.5"/>
				</g>
			</g>
			<g>
				<polygon points="722.4,421.6 732.4,428.7 685.8,560 675.9,553 				"/>
			</g>
			<g>
				<polygon class="st34" points="723.4,421.9 733.3,429 687,559.5 677.1,552.5 				"/>
			</g>
			<g>
				<polygon class="st35" points="792.2,346.4 802.2,353.5 837.2,414.6 827.3,407.5 				"/>
			</g>
			<g>
				<polygon points="938.5,389.7 948.4,396.8 837.2,414.6 827.3,407.5 				"/>
			</g>
			<g>
				<polygon class="st11" points="936.9,390.9 946.9,398 836.7,415.6 826.7,408.6 				"/>
			</g>
			<g>
				<polygon class="st11" points="890.7,515.8 900.6,522.9 685.5,560.8 675.6,553.7 				"/>
			</g>
			<g>
				<polygon class="st24" points="938.5,389.7 948.4,396.8 900.6,522.9 890.7,515.8 				"/>
			</g>
			<g>
				<polygon class="st11" points="1080.9,297.3 1090.9,304.4 802.2,353.5 792.2,346.4 				"/>
			</g>
			<g>
				<polygon points="1080.9,297.3 1090.9,304.4 1075,351.3 1065.1,344.3 				"/>
			</g>
			<g>
				<polygon class="st36" points="1082.4,296.1 1092.3,303.1 1076,351.5 1066.1,344.4 				"/>
			</g>
			<g>
				<polygon points="1008.4,447.5 1018.4,454.6 974.2,595.1 964.3,588 				"/>
			</g>
			<g>
				<polygon points="964.3,588 974.2,595.1 555,674.4 545.1,667.3 				"/>
			</g>
			<g>
				<polygon class="st37" points="1008.1,451.9 1018,458.9 975,596 965,588.9 				"/>
			</g>
			<g>
				<polygon class="st11" points="965,588.9 975,596 553.5,675.7 543.5,668.6 				"/>
			</g>
			<g>
				<polygon points="1065.1,344.3 1075,351.3 1096.5,487.7 1086.6,480.6 				"/>
			</g>
			<g>
				<polygon class="st12" points="1066.1,344.4 1076,351.5 1097.5,487.8 1087.6,480.8 				"/>
			</g>
			<g>
				<polygon class="st12" points="1008.4,447.5 1018.4,454.6 1037.8,588.4 1027.8,581.3 				"/>
			</g>
			<g>
				<polygon points="1086.6,480.6 1096.5,487.7 1037.8,588.4 1027.8,581.3 				"/>
			</g>
			<g>
				<path class="st10" d="M1082.4,296.1l-16.3,48.4l21.5,136.3l-60.3,103.4l-19.2-132.3l-43.1,137l-421.5,79.7l155.9-408l6.2,9.4
					c29.2,44.1,35.8,100.9,17.7,151.9l-46.3,130.6L890,514.9l47-124l-110.2,17.6l-36-62.9L1082.4,296.1z M1086.6,480.6l-21.5-136.2
					l15.9-47.1l-288.7,49.1l35,61.1l111.2-17.8l-47.8,126.1l-215.1,37.9l46.9-132.1c18-50.7,11.4-107.2-17.6-151l-5.2-7.8
					L545.1,667.3L964.3,588l44.2-140.5l19.4,133.8L1086.6,480.6"/>
			</g>
			<g>
				<path d="M699.7,262.8l5.2,7.8c29,43.8,35.6,100.3,17.6,151L675.9,553l214.8-37.1l47.8-126.1l-111.2,17.8l-35-61.1l288.7-49.1
					l-15.8,47l21.5,136.3l-58.7,100.7l-19.4-133.8L964.3,588l-419.2,79.3L699.7,262.8z"/>
			</g>
			<g>
				<polygon class="st38" points="1087.6,480.8 1097.5,487.8 1037.2,591.3 1027.3,584.2 				"/>
			</g>
		</g>
	</g>
</g>
</svg>
